<?xml version="1.0" standalone="no"?><!DOCTYPE svg PUBLIC "-//W3C//DTD SVG 1.1//EN" "http://www.w3.org/Graphics/SVG/1.1/DTD/svg11.dtd"><svg t="1619613357374" class="icon" viewBox="0 0 1024 1024" version="1.1" xmlns="http://www.w3.org/2000/svg" p-id="13203" xmlns:xlink="http://www.w3.org/1999/xlink" width="64" height="64"><defs><style type="text/css"></style></defs><path d="M979.2 512h-5.9c0 127.4-51.6 242.7-135.1 326.1-83.5 83.5-198.8 135.1-326.1 135.1-127.4 0-242.7-51.6-326.1-135.1C102.5 754.6 50.9 639.4 50.9 512c0-127.4 51.6-242.7 135.1-326.1 83.5-83.5 198.8-135.1 326.1-135.1 127.4 0 242.7 51.6 326.1 135.1 83.5 83.5 135.1 198.8 135.1 326.1h11.8c0-261.3-211.8-473-473-473s-473 211.8-473 473 211.8 473 473 473 473-211.8 473-473h-5.9z" fill="#E94219" p-id="13204"></path><path d="M455.4 322.3v-18.6H213l5.4 18.6zM455.4 245.8v-18.5H288l6.1 18.5zM787.8 468.3c-13.9-13.1-44-34.8-61-44.8l-30.1 34.8H561.9v18.5h218.9l7-8.5zM272.5 476.8h182.9v-18.6H267.1zM286.4 399.5h169V381H281zM756.1 528.5H561.9V547H841l6.2-8.5c-13.9-13.9-44-34.8-61-44.8l-30.1 34.8zM815.5 269l-30.1 34.8h-48.7v-47.1l17-20.9c-10.8-13.1-37.8-32.4-54.1-42.5l-30.9 34H561.9v18.5h118.5v57.9H561.9v18.5h118.5V381H561.9v18.5h118.5v17h56.4v-94.2h132.9l7-7.7c-14-14-44.2-35.6-61.2-45.6zM455.4 762.6H355.2v-61.8h100.2v-18.6H355.2v-62.5h100.2v-18.6H355.2l-8.5-17h-64.1v15.5l14.6 15.4v215.5h58v-49.4h100.2zM702.8 571.8l-30.9 29.4h-110v18.5H678v62.6H561.9v18.5H678v61.8H561.9v18.5H678v44h58V636.7l20.9-19.3c-11.6-14-39.5-34.8-54.1-45.6zM455.4 528.5H199.1l5.4 18.5h250.9zM528.6 783l-0.3-0.2-1-0.7c-0.9-0.6-2.2-1.3-3.9-2.1-3.4-1.5-8.4-3-14.7-3-6.3 0-11.3 1.5-14.7 3-1.7 0.8-3 1.5-3.9 2.1l-1 0.7-0.1 0.2c0 22.2 18.4 140 19.6 143.2l0.2 0.1 0.2-0.1c1.3-3.2 19.6-121 19.6-143.2zM532.4 105.6l1.3-1.8H484l1.2 1.8c0.7 1.1 1.3 2.5 1.8 4.1 1.1 3.1 1.9 7 1.9 11.1v19.9l-1.7 0.4-0.9 1-0.1 1.1c0 1 0.3 2.2 0.5 3.7 0.3 1.4 0.5 3.1 0.5 4.8 0 1.7-0.3 3.4-0.5 4.8-0.3 1.5-0.5 2.7-0.5 3.7l0.1 1.1 0.5 0.7 2.1 0.7 0.1 612.6 0.3-0.2 1-0.7c0.9-0.6 2.2-1.3 3.9-2.1 3.4-1.5 8.4-3 14.7-3 6.3 0 11.3 1.5 14.7 3 1.7 0.8 3 1.5 3.9 2.1l1 0.7 0.3 0.2 0.1-612.6 1.4-0.3 1.1-0.6 0.7-2.5c0-1.9-0.6-4.6-0.6-7.6s0.6-5.6 0.6-7.6l-0.4-2-1.4-1.1-1.4-0.3v-19.9c-0.1-6.1 1.6-11.9 3.5-15.2z" fill="#E94219" p-id="13205"></path></svg>