<?xml version="1.0" standalone="no"?><!DOCTYPE svg PUBLIC "-//W3C//DTD SVG 1.1//EN" "http://www.w3.org/Graphics/SVG/1.1/DTD/svg11.dtd"><svg t="1619613051413" class="icon" viewBox="0 0 1024 1024" version="1.1" xmlns="http://www.w3.org/2000/svg" p-id="2369" xmlns:xlink="http://www.w3.org/1999/xlink" width="64" height="64"><defs><style type="text/css"></style></defs><path d="M16 16H512v502.656H16zM512 16h496v496.512H512z" fill="#9DE8F7" p-id="2370"></path><path d="M512 512h496v478.272H512zM16 518.656H512v478.272H16z" fill="#9DE8F7" p-id="2371"></path><path d="M1008 1024H16a16 16 0 0 1-16-16V16A16 16 0 0 1 16 0h992a16 16 0 0 1 16 16v992a16 16 0 0 1-16 16zM32 992h960V32H32v960z" fill="" p-id="2372"></path><path d="M54.656 520h-32a8 8 0 0 1 0-16h32a8 8 0 0 1 0 16zM908.288 520h-60.992a8 8 0 0 1 0-16h60.992a8 8 0 0 1 0 16z m-121.92 0h-60.992a8 8 0 0 1 0-16h60.992a8 8 0 0 1 0 16z m-121.92 0h-60.992a8 8 0 0 1 0-16h60.992a8 8 0 0 1 0 16z m-121.984 0h-60.992a8 8 0 0 1 0-16h60.992a8 8 0 0 1 0 16z m-121.92 0h-60.992a8 8 0 0 1 0-16h60.992a8 8 0 0 1 0 16z m-121.984 0h-60.992a8 8 0 0 1 0-16h60.992a8 8 0 0 1 0 16z m-121.92 0h-60.992a8 8 0 0 1 0-16h60.992a8 8 0 0 1 0 16zM1001.344 520h-32a8 8 0 0 1 0-16h32a8 8 0 0 1 0 16z" fill="" p-id="2373"></path><path d="M512 1009.344a8 8 0 0 1-8-8v-32a8 8 0 0 1 16 0v32c0 4.48-3.584 8-8 8zM512 916.224a8 8 0 0 1-8-8v-60.992a8 8 0 0 1 16 0v60.992c0 4.48-3.584 8-8 8z m0-121.92a8 8 0 0 1-8-8v-60.992a8 8 0 0 1 16 0v60.992a8 8 0 0 1-8 8z m0-121.92a8 8 0 0 1-8-8v-60.992a8 8 0 0 1 16 0v60.992a8 8 0 0 1-8 8zM512 550.4a8 8 0 0 1-8-8v-60.992a8 8 0 0 1 16 0v60.992A8 8 0 0 1 512 550.4z m0-121.92a8 8 0 0 1-8-8v-60.992a8 8 0 0 1 16 0v60.992A8 8 0 0 1 512 428.48zM512 306.56a8 8 0 0 1-8-8v-60.992a8 8 0 0 1 16 0v60.992A8.064 8.064 0 0 1 512 306.56z m0-121.984a8 8 0 0 1-8-8v-60.992a8 8 0 0 1 16 0v60.992A8 8 0 0 1 512 184.576zM512 62.656a8 8 0 0 1-8-8v-32a8 8 0 0 1 16 0v32A8 8 0 0 1 512 62.656z" fill="" p-id="2374"></path><path d="M566.4 552.384c32.512-38.528 53.12-71.68 61.76-99.584 3.2-11.264 7.488-16.96 12.992-16.96 5.248 0 13.76 5.504 25.344 16.448 11.52 10.88 17.344 18.88 17.344 23.936 0 4.928-3.712 8.896-11.008 11.904-7.232 3.008-20.608 11.456-39.68 25.408-19.264 13.952-37.12 28.224-53.888 42.816 31.36 9.856 53.376 20.288 66.24 31.232 12.992 11.008 19.52 24.896 19.52 41.792s-4.992 25.344-14.912 25.344c-7.232 0-14.656-4.224-21.952-12.864-35.904-39.04-65.344-67.008-88.512-83.52-2.688 35.904-4.032 113.152-4.032 232 0 25.792-3.52 53.376-10.432 82.496-6.912 29.248-15.424 43.904-25.408 43.904-5.952 0-12.224-9.28-18.88-27.392-6.656-18.24-9.984-33.344-9.984-45.376 0-11.904 1.344-22.592 4.032-31.872 8.64-29.76 15.232-70.016 19.968-120.384 4.544-50.368 6.848-92.48 6.848-126.4 0-33.792-1.664-57.408-4.928-70.72-60.544 75.712-113.728 129.408-159.872 161.344-46.144 31.872-75.84 47.744-89.088 47.744-2.688 0-3.968-1.088-3.968-2.944 0-3.392 7.104-10.688 21.376-22.016 14.272-11.264 43.456-38.528 87.616-81.6 44.096-43.136 83.776-89.728 118.976-139.84s52.736-79.552 52.736-88.064c0-3.968-2.304-6.016-6.912-6.016-10.56 0-39.68 8.448-87.04 25.344-47.552 16.96-76.032 25.472-85.696 25.472s-21.568-5.312-35.84-16c-14.336-10.56-21.44-18.56-21.44-23.872 0-5.248 10.88-7.936 32.832-7.936 30.528 0 71.168-6.272 121.984-18.944 50.688-12.544 85.12-26.176 102.976-40.704a32.384 32.384 0 0 1 20.416-8c6.848 0 18.112 5.312 33.728 16 15.68 10.624 23.36 18.88 23.36 24.832a15.168 15.168 0 0 1-8 13.952c-19.776 12.032-34.752 25.408-44.672 40.32-9.984 14.912-29.76 42.496-59.584 83.072 20.544 17.856 30.208 40.448 28.864 67.648 12.672 3.392 21.568 6.016 26.816 8z" fill="#FAD97F" p-id="2375"></path><path d="M499.712 932.736c-17.6 0-27.008-19.136-33.92-37.888-7.36-20.224-10.944-36.864-10.944-50.88 0-13.376 1.536-25.6 4.672-36.288 8.256-28.288 14.72-67.84 19.392-117.44 4.544-49.344 6.848-91.456 6.848-124.928 0-12.288-0.192-22.592-0.576-31.168-51.904 61.888-97.6 106.24-139.072 134.912-64.96 44.864-86.592 50.624-98.176 50.624-11.392 0-19.968-8.128-19.968-18.944 0-9.664 6.656-18.048 27.456-34.56 13.44-10.624 42.56-37.696 86.4-80.512a986.176 986.176 0 0 0 117.056-137.6c24.128-34.432 36.608-54.4 43.072-65.792-11.904 3.072-32 9.28-65.92 21.312-65.216 23.296-82.624 26.432-91.072 26.432-13.312 0-28.16-6.272-45.44-19.2-19.456-14.336-27.84-25.28-27.84-36.672 0-23.936 32.96-23.936 48.832-23.936 29.248 0 68.992-6.208 118.144-18.496 60.032-14.848 85.76-28.608 96.768-37.568 19.456-15.424 35.2-18.816 73.344 7.168 21.184 14.464 30.272 25.792 30.272 38.08a31.168 31.168 0 0 1-15.872 27.712c-17.728 10.816-31.104 22.784-39.552 35.456-9.152 13.632-26.368 37.76-51.904 72.576 14.4 16.192 22.336 35.328 23.808 57.024l5.504 1.6c27.136-33.28 44.544-62.08 51.84-85.696 9.408-32.576 28.608-41.472 64.64-7.488 15.936 15.04 22.464 25.344 22.464 35.584 0 6.784-2.688 19.264-20.928 26.688-2.816 1.152-12.096 5.824-36.352 23.552-10.944 7.936-21.504 16-31.68 24.256 19.648 7.744 34.432 15.936 44.864 24.832 16.704 14.144 25.152 32.256 25.152 54.016 0 38.336-23.68 41.344-30.912 41.344-8.512 0-21.248-3.264-34.176-18.56-23.424-25.472-44.16-46.272-61.952-61.824a6094.336 6094.336 0 0 0-2.368 200c0 26.752-3.712 55.744-10.88 86.208-6.208 25.984-16.448 56.064-41.024 56.064z m15.36-426.368c1.792 14.464 2.688 33.984 2.688 58.944 0 34.432-2.368 77.504-6.976 127.872-4.928 52.416-11.648 92.736-20.544 123.456a99.84 99.84 0 0 0-3.392 27.392c0 10.048 3.008 23.424 9.024 39.872 1.92 5.312 3.584 9.152 4.992 11.904a122.88 122.88 0 0 0 8.704-26.56c6.656-28.032 9.984-54.528 9.984-78.784 0-120.32 1.344-196.544 4.032-233.216l0.064-0.512-0.704-0.256 0.64-12.928a65.024 65.024 0 0 0-8.512-37.184z m2.624-159.168c13.504 0 22.912 9.088 22.912 22.016 0 9.152-4.288 24.128-55.616 97.28a1006.208 1006.208 0 0 1-120.896 142.08c-12.16 11.904-23.168 22.592-33.088 32 43.904-31.168 95.424-83.648 153.344-155.968l13.44-17.344c29.632-40.32 49.28-67.712 59.2-82.56 11.008-16.448 27.584-31.552 49.28-44.8-1.344-1.152-5.568-5.312-15.552-12.16-18.56-12.608-24.64-13.184-24.896-13.184-1.92 0-5.248 0.448-10.368 4.544-19.84 16.128-55.552 30.464-109.12 43.712-51.648 12.864-94.016 19.392-125.824 19.392l-5.632 0.064 3.712 2.816c14.976 11.264 22.976 12.928 26.368 12.928 2.688 0 16.512-1.792 80.32-24.512 65.344-23.296 83.712-26.304 92.416-26.304z m67.008 227.776c16.32 15.104 34.624 33.664 55.232 56.064a25.344 25.344 0 0 0 8.64 7.36c-0.064-1.344 0.448-4.096 0.448-9.024a36.416 36.416 0 0 0-13.824-29.632c-9.92-8.32-26.88-16.704-50.496-24.768z m59.648-120.448c-0.32 0.768-0.576 1.664-0.896 2.752a202.752 202.752 0 0 1-19.84 43.328h0.064c19.008-13.888 32.64-22.656 41.472-26.624a129.92 129.92 0 0 0-20.8-19.456z" fill="" p-id="2376"></path><path d="M473.28 124.544c39.36 0 65.856 9.92 79.744 30.016 13.696 20.032 20.672 37.632 20.672 52.8a26.24 26.24 0 0 1-6.656 18.624 23.808 23.808 0 0 1-18.176 7.232c-12.352 0-28.928-9.024-49.664-26.944l-51.776-46.592c-14.528-12.352-21.76-21.312-21.76-26.88 0-5.568 15.872-8.256 47.616-8.256z" fill="#F2385A" p-id="2377"></path><path d="M548.8 249.216c-16.64 0-35.776-9.792-60.16-30.784l-51.904-46.848c-19.136-16.32-27.072-27.584-27.072-38.784 0-24.256 35.264-24.256 63.616-24.256 44.736 0 75.968 12.416 92.928 36.928 15.808 23.04 23.488 43.328 23.488 61.888 0 11.648-3.84 21.824-11.008 29.568a39.68 39.68 0 0 1-29.888 12.288zM450.688 141.184c1.92 1.792 4.288 3.968 7.104 6.336l52.032 46.912c23.872 20.544 35.2 22.784 38.976 22.784 4.48 0 5.952-1.536 6.592-2.176 0.96-1.088 2.304-3.008 2.304-7.68 0-11.776-6.016-26.496-17.856-43.776-10.56-15.296-33.024-23.04-66.56-23.04a328.96 328.96 0 0 0-22.592 0.64z" fill="" p-id="2378"></path></svg>