<?xml version="1.0" standalone="no"?><!DOCTYPE svg PUBLIC "-//W3C//DTD SVG 1.1//EN" "http://www.w3.org/Graphics/SVG/1.1/DTD/svg11.dtd"><svg t="1619613279381" class="icon" viewBox="0 0 1024 1024" version="1.1" xmlns="http://www.w3.org/2000/svg" p-id="9616" xmlns:xlink="http://www.w3.org/1999/xlink" width="64" height="64"><defs><style type="text/css"></style></defs><path d="M869.3 239.8H150.1c-15.1 0-27.4 12.3-27.4 27.4v507.9c0 15.1 12.3 27.4 27.4 27.4h719.2c15.1 0 27.4-12.3 27.4-27.4V267.2c0-15-12.4-27.4-27.4-27.4z" fill="#FF0303" p-id="9617"></path><path d="M146.9 285.3h725.5V757H146.9z" fill="#FFC74A" p-id="9618"></path><path d="M122.7 239.8h79.1v562.7h-79.1z" fill="#231815" opacity=".5" p-id="9619"></path><path d="M837.3 239.8h49.6v562.7h-49.6z" fill="#231815" opacity=".2" p-id="9620"></path><path d="M116.1 168.3c-14.8 0-26.8 12.1-26.8 26.8v76.1c0 14.8 12.1 26.8 26.8 26.8 14.8 0 26.8-12.1 26.8-26.8v-76.1c0-14.7-12-26.8-26.8-26.8zM141.8 731.1H90.4c-0.6 0-1.2 0.5-1.2 1.2v127.4c0 0.6 0.5 1.2 1.2 1.2h51.3c0.6 0 1.2-0.5 1.2-1.2V732.2c0-0.6-0.5-1.1-1.1-1.1z" fill="#FF0303" p-id="9621"></path><path d="M140.4 221.2H91.8c-15.1 0-27.4 12.3-27.4 27.4v545.2c0 15.1 12.3 27.4 27.4 27.4h48.6c15.1 0 27.4-12.3 27.4-27.4V248.6c0-15.1-12.3-27.4-27.4-27.4z" fill="#FF0303" p-id="9622"></path><path d="M143.6 221.2h-0.6v-28.6c0-13.3-10.9-24.2-24.2-24.2h-2.6v692.5h2.6c13.3 0 24.2-10.9 24.2-24.2v-15.4h0.6c13.3 0 24.2-10.9 24.2-24.2V245.4c0-13.3-10.9-24.2-24.2-24.2z" fill="#231815" opacity=".3" p-id="9623"></path><path d="M907.6 168.3c-14.8 0-26.8 12.1-26.8 26.8v76.1c0 14.8 12.1 26.8 26.8 26.8 14.8 0 26.8-12.1 26.8-26.8v-76.1c0.1-14.7-12-26.8-26.8-26.8zM907.6 731.1c-14.8 0-26.8 12.1-26.8 26.8V834c0 14.8 12.1 26.8 26.8 26.8 14.8 0 26.8-12.1 26.8-26.8v-76.1c0.1-14.8-12-26.8-26.8-26.8z" fill="#FF0303" p-id="9624"></path><path d="M931.9 221.2h-48.6c-15.1 0-27.4 12.3-27.4 27.4v545.2c0 15.1 12.3 27.4 27.4 27.4h48.6c15.1 0 27.4-12.3 27.4-27.4V248.6c0-15.1-12.3-27.4-27.4-27.4z" fill="#FF0303" p-id="9625"></path><path d="M935.1 221.2h-0.6v-28.6c0-13.3-10.9-24.2-24.2-24.2h-2.6v692.5h2.6c13.3 0 24.2-10.9 24.2-24.2v-15.4h0.6c13.3 0 24.2-10.9 24.2-24.2V245.4c0-13.3-10.9-24.2-24.2-24.2z" fill="#231815" opacity=".3" p-id="9626"></path><path d="M368.3 362.8h43.3c10.3 0 18.6-8.3 18.6-18.6s-8.3-18.6-18.6-18.6h-43.3c-10.3 0-18.6 8.3-18.6 18.6s8.3 18.6 18.6 18.6zM444.9 396.9c-5.2-10-15.4-16.1-26.7-16.1h-93.8c-10.3 0-18.6 8.3-18.6 18.6s8.3 18.6 18.6 18.6h80.3L302.4 566.3c-5.8 8.5-3.7 20.1 4.8 25.9 3.2 2.2 6.9 3.3 10.5 3.3 5.9 0 11.7-2.8 15.3-8L443 428c6.4-9.3 7.1-21.2 1.9-31.1z" fill="#FF0303" p-id="9627"></path><path d="M450.1 525.5c-7.4-6.6-33.2-27.2-56.5-16.8-14.8 6.6-22.3 22.4-22.3 47v122.6c0 10.3 8.3 18.6 18.6 18.6s18.6-8.3 18.6-18.6V555.7c0-6.2 0.6-10 1.2-12.1 4.1 1.4 10.8 5.5 15.5 9.7 7.7 6.8 19.4 6.1 26.3-1.6 6.9-7.6 6.2-19.3-1.4-26.2zM467.7 362.8h210.6c10.3 0 18.6-8.3 18.6-18.6s-8.3-18.6-18.6-18.6H467.7c-10.3 0-18.6 8.3-18.6 18.6s8.3 18.6 18.6 18.6zM546 371.9c-30.3 0-55 24.7-55 55s24.7 55 55 55h64c30.3 0 55-24.7 55-55s-24.7-55-55-55h-64z m81.7 55c0 9.8-8 17.8-17.8 17.8h-64c-9.8 0-17.8-8-17.8-17.8s8-17.7 17.8-17.7h64c9.8 0 17.8 7.9 17.8 17.7zM592.1 498.7h-38.2c-56.5 0-102.4 45.9-102.4 102.4s45.9 102.4 102.4 102.4h38.2c56.5 0 102.4-45.9 102.4-102.4s-45.9-102.4-102.4-102.4z m62.1 83.8h-62.6V537c0-0.4-0.2-0.7-0.2-1.1h0.7c29.4 0.1 54.1 19.8 62.1 46.6zM553.9 536h0.7c0 0.4-0.2 0.7-0.2 1.1v45.5h-62.6c8-26.9 32.7-46.6 62.1-46.6z m-62.1 83.7h62.6v46.5h-0.5c-29.4 0.1-54.1-19.6-62.1-46.5z m100.3 46.6h-0.5v-46.5h62.6c-8 26.8-32.7 46.5-62.1 46.5z" fill="#FF0303" p-id="9628"></path></svg>