<?xml version="1.0" standalone="no"?><!DOCTYPE svg PUBLIC "-//W3C//DTD SVG 1.1//EN" "http://www.w3.org/Graphics/SVG/1.1/DTD/svg11.dtd"><svg t="1612689652848" class="icon" viewBox="0 0 1024 1024" version="1.1" xmlns="http://www.w3.org/2000/svg" p-id="770" xmlns:xlink="http://www.w3.org/1999/xlink" width="200" height="200"><defs><style type="text/css"></style></defs><path d="M525.714286 50.285714H498.285714v22.857143h27.428572V50.285714z" fill="#FF0000" p-id="771"></path><path d="M531.748571 816H492.251429C490.285714 830.96 486.857143 859.668571 486.857143 877.714286c0 45.108571 14.685714 90.72 25.142857 117.44C522.445714 968.4 537.142857 922.742857 537.142857 877.714286c0-18.045714-3.428571-46.754286-5.394286-61.714286z" fill="#FFFFFF" p-id="772"></path><path d="M486.857143 669.714286h50.285714v134.857143H486.857143z" fill="#0000FF" p-id="773"></path><path d="M486.857143 84.571429h50.285714v572.571428H486.857143z" fill="#FFCC00" p-id="774"></path><path d="M537.142857 73.142857V38.857143H521.245714L526.857143 25.222857C531.668571 13.382857 523.794286 0 512 0S492.331429 13.382857 497.142857 25.222857L502.754286 38.857143H486.857143v34.285714H475.428571v731.622857a11.188571 11.188571 0 0 0 5.508572 9.6C478.937143 829.531429 475.428571 858.937143 475.428571 877.714286c0 73.142857 36.571429 146.285714 36.571429 146.285714s36.571429-73.142857 36.571429-146.285714c0-18.822857-3.52-48.194286-5.508572-63.348572a11.188571 11.188571 0 0 0 5.508572-9.6V73.142857zM508.422857 13.611429a4.022857 4.022857 0 0 1 7.154286 0 7.862857 7.862857 0 0 1 0.662857 7.28L512 31.28l-4.251429-10.377143a7.862857 7.862857 0 0 1 0.674286-7.291428zM486.857143 877.714286c0-18.045714 3.428571-46.754286 5.394286-61.714286h39.485714C533.714286 830.96 537.142857 859.668571 537.142857 877.714286c0 45.028571-14.708571 90.685714-25.142857 117.44-10.457143-26.72-25.142857-72.331429-25.142857-117.44z m50.285714-73.142857H486.857143V669.714286h50.285714z m0-147.428572H486.857143V84.571429h50.285714zM498.285714 50.285714h27.428572v22.857143H498.285714z" fill="" p-id="775"></path></svg>