<?xml version="1.0" standalone="no"?><!DOCTYPE svg PUBLIC "-//W3C//DTD SVG 1.1//EN" "http://www.w3.org/Graphics/SVG/1.1/DTD/svg11.dtd"><svg t="1619613170307" class="icon" viewBox="0 0 1024 1024" version="1.1" xmlns="http://www.w3.org/2000/svg" p-id="4675" xmlns:xlink="http://www.w3.org/1999/xlink" width="64" height="64"><defs><style type="text/css"></style></defs><path d="M16 16H512v502.656H16zM512 16h496v496.512H512z" fill="#9DE8F7" p-id="4676"></path><path d="M512 512h496v478.272H512zM16 518.656H512v478.272H16z" fill="#9DE8F7" p-id="4677"></path><path d="M1008 1024H16a16 16 0 0 1-16-16V16A16 16 0 0 1 16 0h992a16 16 0 0 1 16 16v992a16 16 0 0 1-16 16zM32 992h960V32H32v960z" fill="" p-id="4678"></path><path d="M54.656 520h-32a8 8 0 0 1 0-16h32a8 8 0 0 1 0 16zM908.288 520h-60.992a8 8 0 0 1 0-16h60.992a8 8 0 0 1 0 16z m-121.92 0h-60.992a8 8 0 0 1 0-16h60.992a8 8 0 0 1 0 16z m-121.92 0h-60.992a8 8 0 0 1 0-16h60.992a8 8 0 0 1 0 16z m-121.984 0h-60.992a8 8 0 0 1 0-16h60.992a8 8 0 0 1 0 16z m-121.92 0h-60.992a8 8 0 0 1 0-16h60.992a8 8 0 0 1 0 16z m-121.984 0h-60.992a8 8 0 0 1 0-16h60.992a8 8 0 0 1 0 16z m-121.92 0h-60.992a8 8 0 0 1 0-16h60.992a8 8 0 0 1 0 16zM1001.344 520h-32a8 8 0 0 1 0-16h32a8 8 0 0 1 0 16z" fill="" p-id="4679"></path><path d="M512 1009.344a8 8 0 0 1-8-8v-32a8 8 0 0 1 16 0v32c0 4.48-3.584 8-8 8zM512 916.224a8 8 0 0 1-8-8v-60.992a8 8 0 0 1 16 0v60.992c0 4.48-3.584 8-8 8z m0-121.92a8 8 0 0 1-8-8v-60.992a8 8 0 0 1 16 0v60.992a8 8 0 0 1-8 8z m0-121.92a8 8 0 0 1-8-8v-60.992a8 8 0 0 1 16 0v60.992a8 8 0 0 1-8 8zM512 550.4a8 8 0 0 1-8-8v-60.992a8 8 0 0 1 16 0v60.992A8 8 0 0 1 512 550.4z m0-121.92a8 8 0 0 1-8-8v-60.992a8 8 0 0 1 16 0v60.992A8 8 0 0 1 512 428.48zM512 306.56a8 8 0 0 1-8-8v-60.992a8 8 0 0 1 16 0v60.992A8.064 8.064 0 0 1 512 306.56z m0-121.984a8 8 0 0 1-8-8v-60.992a8 8 0 0 1 16 0v60.992A8 8 0 0 1 512 184.576zM512 62.656a8 8 0 0 1-8-8v-32a8 8 0 0 1 16 0v32A8 8 0 0 1 512 62.656z" fill="" p-id="4680"></path><path d="M602.304 585.472a481.472 481.472 0 0 0 134.016 114.496c49.984 28.416 111.552 49.024 184.96 61.76 12.608 1.728 19.008 5.376 19.008 10.88 0 3.136-3.84 6.144-11.392 9.152-7.488 3.008-29.376 6.528-65.344 10.368-36.032 4.032-66.304 6.016-90.816 6.016-24.448 0-43.456-4.032-56.704-11.904-13.376-7.872-35.008-29.632-65.088-65.344A1107.52 1107.52 0 0 1 576 621.888c-41.216 49.6-85.184 87.36-132.096 113.024-46.912 25.856-91.008 38.72-132.096 38.72-13.312 0-20.032-2.368-20.032-6.848 0-4.416 5.184-8.64 15.424-12.224a510.848 510.848 0 0 0 139.904-70.848c42.944-30.912 76.544-65.408 100.8-103.616-41.216-62.336-71.744-105.344-91.776-128.96-19.968-23.616-36.672-40.128-49.92-49.536-13.312-9.28-20.032-16.896-20.032-22.656s4.224-8.64 12.8-8.64c41.152 0 78.976 30.592 113.536 91.776 7.808 13.952 26.56 40.256 56.256 78.976 24.256-47.232 43.008-94.976 56.384-143.488 13.248-48.384 19.968-78.656 19.968-90.816 0-8.448-3.968-12.672-11.84-12.672-21.12 0-55.36 7.104-102.656 21.312-47.232 14.208-77.056 21.312-89.472 21.312s-24.832-3.264-37.184-9.984c-12.416-6.656-18.624-12.544-18.624-17.664 0-5.184 6.336-8.064 19.072-8.704 35.072-1.152 78.4-8.128 129.92-20.928 51.392-12.608 89.024-27.84 112.512-45.312a36.288 36.288 0 0 1 23.616-8.192c9.152 0 25.216 7.68 48.128 22.72 22.912 15.104 34.496 26.496 34.496 34.112 0 7.552-6.656 17.088-20.032 28.544-19.392 16.32-35.776 45.12-49.024 86.272-24.128 75.072-51.392 137.728-81.728 187.904z" fill="#FAD97F" p-id="4681"></path><path d="M772.672 814.144c-27.264 0-49.152-4.736-64.896-14.144-15.168-8.96-37.184-30.784-69.12-68.8a1193.728 1193.728 0 0 1-64.192-83.008c-38.592 43.392-79.872 77.184-122.944 100.736-48.96 27.008-96 40.704-139.776 40.704-29.76 0-36.032-12.416-36.032-22.848 0-12.032 8.768-21.184 26.048-27.328a497.088 497.088 0 0 0 135.936-68.8c37.824-27.136 68.352-57.472 90.88-90.496-37.824-57.152-66.304-97.024-84.672-118.72-18.944-22.4-34.752-38.144-46.912-46.784-18.496-12.928-26.816-23.936-26.816-35.712 0-11.392 7.552-24.64 28.8-24.64 47.104 0 89.984 33.6 127.488 99.904 5.952 10.688 19.2 29.632 39.36 56.576a727.04 727.04 0 0 0 43.84-117.44c14.464-52.608 18.368-74.24 19.2-83.072-20.224 0.896-51.52 7.808-93.632 20.416-65.536 19.712-85.12 21.952-94.08 21.952-15.232 0-30.336-4.032-44.864-11.904-12.48-6.656-26.944-16.384-26.944-31.68 0-8.576 4.416-23.168 34.24-24.704 34.112-1.152 76.672-8 126.912-20.48 49.088-12.032 84.992-26.368 106.816-42.624a51.584 51.584 0 0 1 33.216-11.392c12.608 0 30.208 7.808 56.896 25.344 29.696 19.52 41.728 33.344 41.728 47.488 0 12.8-8.128 25.728-25.536 40.704-17.152 14.4-31.936 40.96-44.16 78.976-22.976 71.232-49.088 132.16-77.504 181.376a466.752 466.752 0 0 0 122.368 102.272c48.128 27.392 108.608 47.488 179.776 59.904 26.56 3.712 32.256 16.512 32.256 26.624 0 15.488-16.192 21.888-21.504 24-6.208 2.496-19.776 6.08-69.568 11.456-36.416 4.032-67.584 6.144-92.608 6.144z m-195.2-219.072l11.904 17.984c19.392 29.44 43.52 61.376 73.792 97.536 35.84 42.496 52.864 57.152 60.928 61.824 22.656 13.568 71.104 11.136 137.6 3.84 12.608-1.344 22.656-2.624 30.72-3.712-63.936-13.248-118.848-32.96-164.096-58.624a501.12 501.12 0 0 1-138.432-118.336l-7.168-8.64 5.888-9.664c29.44-48.832 56.448-110.912 80.256-184.576 14.336-44.48 32-75.072 53.952-93.568 11.136-9.472 13.696-14.72 14.208-16.192-0.896-0.064-6.08-6.976-27.2-20.928-29.76-19.52-38.464-20.096-39.296-20.096a20.352 20.352 0 0 0-13.504 4.608c-25.856 19.2-65.6 35.392-118.848 48.448-46.272 11.456-86.656 18.432-120.32 20.736a59.84 59.84 0 0 0 23.296 4.992c6.08 0 25.216-2.688 84.864-20.608 49.152-14.784 84.224-22.016 107.2-22.016 16.64 0 27.84 11.52 27.84 28.672 0 8.64-2.112 27.968-20.48 95.04-13.632 49.28-32.96 98.624-57.6 146.56l-11.52 22.528-15.36-20.032c-30.528-39.808-49.344-66.24-57.536-80.96-26.432-46.72-54.4-74.048-83.264-81.472l0.064 0.064c14.72 10.368 32 27.52 52.992 52.288 20.352 24.064 50.752 66.752 92.928 130.56l5.696 8.64-5.632 8.704c-25.216 39.744-60.48 76.032-104.96 107.968-30.336 21.76-62.72 40.192-96.704 54.976a311.808 311.808 0 0 0 76.48-30.72c44.736-24.448 87.616-61.184 127.488-109.248l13.824-16.576z" fill="" p-id="4682"></path><path d="M101.12 396.16c24.832 0 46.912 5.888 66.304 17.728 19.392 11.776 29.056 28.48 29.056 49.92 0 21.504-6.08 32.192-18.176 32.192s-30.912-13.312-56.32-39.936c-25.408-26.56-38.144-43.136-38.144-49.856 0-6.656 5.696-10.048 17.28-10.048z m184.256 46.4c4.224 0 6.4 3.2 6.4 9.472 0 6.4-2.688 15.296-8.192 26.816a4414.08 4414.08 0 0 0-75.328 194.752c-20.608 57.856-32.192 97.408-34.944 118.912-2.752 21.568-8.576 32.32-17.344 32.32s-20.8-12.864-35.84-38.656c-15.104-25.728-22.72-44.352-22.72-55.872 0-7.872 4.224-13.504 12.672-17.344a52.352 52.352 0 0 0 21.824-17.28c6.016-7.872 23.872-37.376 53.568-88.512 29.696-50.944 55.168-96.768 76.288-137.408 10.368-18.112 18.24-27.2 23.616-27.2zM171.008 199.168c15.04 0 31.872 2.56 50.432 7.744 18.432 5.12 31.616 13.888 39.488 26.368 7.872 12.416 11.776 23.296 11.776 32.64s-2.048 16.512-6.336 21.312a20.928 20.928 0 0 1-16.32 7.296c-11.52 0-30.208-13.184-55.872-39.488-25.792-26.432-38.592-42.304-38.592-47.744 0-5.44 5.12-8.128 15.424-8.128z" fill="#F2385A" p-id="4683"></path><path d="M155.968 840.896c-15.808 0-30.656-13.952-49.664-46.656-17.024-28.992-24.896-49.344-24.896-63.936 0-8.192 2.88-23.232 22.144-31.872a36.928 36.928 0 0 0 15.616-12.288c3.264-4.224 14.272-21.056 52.48-86.912 29.76-51.136 55.296-97.152 75.968-136.832 12.416-21.696 23.424-35.84 37.824-35.84 11.136 0 22.4 7.872 22.4 25.472 0 9.088-3.072 19.776-9.728 33.664a4351.424 4351.424 0 0 0-74.688 193.28c-20.032 56.32-31.552 95.232-34.112 115.584-4.032 30.784-15.232 46.336-33.344 46.336z m84.48-297.856c-12.608 22.72-26.368 46.912-41.152 72.256-44.928 77.376-52.224 86.976-54.656 90.112-7.68 10.176-17.216 17.664-28.416 22.336-2.816 6.4-0.832 18.752 17.728 50.368 9.792 16.896 16.384 24.704 20.096 28.16a74.88 74.88 0 0 0 3.392-15.744c2.944-22.976 14.656-62.976 35.776-122.304 13.504-38.016 29.376-80 47.232-125.184zM178.304 512c-17.28 0-38.272-13.824-67.84-44.928-35.648-37.12-42.624-50.432-42.624-60.864 0-4.352 1.6-26.048 33.28-26.048 27.648 0 52.8 6.72 74.624 20.032 24.064 14.592 36.736 36.608 36.736 63.616 0 43.52-23.872 48.192-34.176 48.192zM104.512 412.16c4.416 5.76 12.928 16 29.056 32.832 33.024 34.624 44.288 35.008 44.736 35.008v16l0.384-16c-0.832 0.192 1.728-2.688 1.792-16.192 0-15.872-6.784-27.392-21.312-36.288a107.904 107.904 0 0 0-54.656-15.36z m145.536-101.632c-16.64 0-37.44-13.632-67.328-44.352-39.936-40.896-43.136-50.496-43.136-58.88 0-4.032 1.472-24.128 31.424-24.128 16.512 0 34.944 2.816 54.72 8.32 22.336 6.208 38.656 17.344 48.704 33.28 9.536 15.04 14.208 28.544 14.208 41.152 0 13.504-3.52 24.256-10.432 32a36.544 36.544 0 0 1-28.16 12.608zM179.264 215.424c5.056 5.76 13.248 14.912 26.368 28.416 33.024 33.92 43.968 34.688 44.416 34.688a5.12 5.12 0 0 0 4.352-1.92c1.152-1.28 2.304-4.672 2.304-10.688 0-4.288-1.6-12.032-9.28-24.064-5.76-9.088-15.68-15.424-30.272-19.52a187.84 187.84 0 0 0-37.888-6.912z" fill="" p-id="4684"></path></svg>